<?xml version="1.0" encoding="utf-8"?>
<!-- Generator: Adobe Illustrator 26.2.1, SVG Export Plug-In . SVG Version: 6.00 Build 0)  -->
<svg version="1.1" id="Layer_1" xmlns="http://www.w3.org/2000/svg" xmlns:xlink="http://www.w3.org/1999/xlink" x="0px" y="0px"
	 viewBox="0 0 340.16 481.89" style="enable-background:new 0 0 340.16 481.89;" xml:space="preserve">
<style type="text/css">
	.st0{fill:#E5D3D3;}
	.st1{fill:none;stroke:#000000;stroke-width:2;stroke-miterlimit:10;}
	.st2{fill:none;stroke:#000000;stroke-width:2;}
	.st3{fill:none;stroke:#000000;stroke-width:3;stroke-miterlimit:10;}
	.st4{fill:none;stroke:#E5D3D3;stroke-miterlimit:10;}
	.st5{stroke:#E5D3D3;stroke-width:0.25;stroke-miterlimit:10;}
</style>
<rect x="-0.26" y="-1.66" class="st0" width="339.73" height="481.84"/>
<line class="st1" x1="157.03" y1="130.97" x2="157.14" y2="254.97"/>
<polyline class="st2" points="103.81,257.92 103.41,130.05 157.14,254.97 157.14,254.97 211.54,129.6 214.44,258.83 "/>
<path class="st3" d="M120.18,257.32h63.44c2.83,0.45,11.04,2.12,18.03,9.22c2.29,2.33,6.89,7.71,8.53,15.96
	c1.86,9.36-1.2,16.72-2.74,20.28c-3.43,7.94-8.62,12.45-9.79,13.44c-1.22,1.03-5.97,6.97-15.55,7.57
	c-17.71,1.1-17.76,0.83-23.09,0.96c-13.82,0.33-27.08,0.21-39.73-0.25V198.25l18.36,0.03c16.44,0.13,28.09,0.19,32.34,0.14
	c0.5-0.01,1.88-0.03,3.72,0.14c1,0.09,4.01,0.4,7.98,1.65c2.28,0.72,5.7,1.79,9.5,4.27c2.13,1.39,6.21,4.12,9.36,9.36
	c0.86,1.43,3.47,6.08,3.85,12.66c0.49,8.53-3.09,14.75-4.54,17.2c-4.46,7.52-15.22,11.87-18.09,13.32"/>
<line class="st1" x1="169.78" y1="130.58" x2="146.5" y2="130.58"/>
<line class="st4" x1="134.73" y1="196.28" x2="129.48" y2="196.28"/>
<line class="st4" x1="136.27" y1="200.28" x2="131.03" y2="200.28"/>
<path class="st4" d="M159.82,200.43c-0.88-0.06-1.83-0.09-2.82-0.08c-0.85,0.01-1.66,0.04-2.42,0.09"/>
<line class="st4" x1="159.73" y1="196.4" x2="154.49" y2="196.4"/>
<path class="st4" d="M184.41,198.89c-1.7-0.49-3.4-0.97-5.1-1.46"/>
<path class="st4" d="M182.77,202.68c-0.4-0.18-0.9-0.38-1.47-0.56c-0.38-0.12-0.99-0.31-1.77-0.47c-0.54-0.11-1.16-0.22-1.87-0.29"
	/>
<g>
	<g>
		<path class="st5" d="M108.36,345.77v13.62h-1.45v-13.62H108.36z"/>
		<path class="st5" d="M119.33,345.77l4.33,11.62l4.4-11.62h1.88v13.62h-1.45v-11.17l-4.09,11.17h-1.32l-4.18-11.17v11.17h-1.45
			v-13.62H119.33z"/>
		<path class="st5" d="M138.79,345.77h5.29c0.59,0,1.13,0.08,1.6,0.25s0.88,0.4,1.22,0.69s0.6,0.63,0.78,1.01s0.27,0.79,0.27,1.23
			c0,0.65-0.18,1.26-0.55,1.82s-0.9,1.02-1.59,1.38c0.52,0.15,0.96,0.34,1.32,0.58s0.65,0.5,0.86,0.8s0.38,0.62,0.47,0.97
			s0.15,0.7,0.15,1.07c0,0.53-0.11,1.02-0.32,1.48s-0.5,0.87-0.86,1.22s-0.78,0.62-1.25,0.83s-0.97,0.3-1.48,0.3h-5.92V345.77z
			 M140.24,351.5h3.51c0.41,0,0.78-0.06,1.12-0.19s0.63-0.29,0.87-0.51s0.43-0.46,0.57-0.75s0.21-0.58,0.21-0.9
			c0-0.29-0.05-0.56-0.15-0.82s-0.25-0.47-0.45-0.65s-0.47-0.33-0.79-0.44s-0.7-0.16-1.13-0.16h-3.76V351.5z M140.24,358.08h3.86
			c0.36,0,0.73-0.05,1.1-0.16s0.7-0.26,0.99-0.47s0.53-0.48,0.72-0.81s0.28-0.71,0.28-1.15c0-0.36-0.08-0.71-0.25-1.04
			s-0.4-0.62-0.71-0.86s-0.69-0.44-1.13-0.58s-0.95-0.21-1.52-0.21h-3.33V358.08z"/>
		<path class="st5" d="M161.04,345.77v1.32h-7.64v4.61h7.19v1.32h-7.19v5.06h7.98v1.32h-9.42v-13.62H161.04z"/>
		<path class="st5" d="M171.24,345.77l4.95,13.62h-1.5l-1.57-4.34h-5.79l-1.57,4.34h-1.49l4.99-13.62H171.24z M170.22,347.12
			l-2.5,6.85h4.99L170.22,347.12z"/>
		<path class="st5" d="M180.98,345.77v9.18c0,0.55,0.1,1.05,0.31,1.49s0.47,0.81,0.8,1.12c0.33,0.31,0.7,0.54,1.11,0.7
			c0.41,0.16,0.83,0.24,1.25,0.24c0.44,0,0.89-0.08,1.33-0.22c0.45-0.15,0.85-0.37,1.2-0.66c0.36-0.29,0.64-0.66,0.87-1.1
			s0.34-0.95,0.34-1.53v-9.22h1.45v9.12c0,0.53-0.07,1.01-0.21,1.46c-0.14,0.45-0.33,0.85-0.58,1.22c-0.25,0.36-0.54,0.69-0.87,0.96
			s-0.69,0.51-1.08,0.7c-0.38,0.19-0.78,0.33-1.2,0.42c-0.41,0.09-0.83,0.14-1.24,0.14c-0.39,0-0.78-0.05-1.18-0.14
			c-0.4-0.09-0.78-0.23-1.14-0.42c-0.36-0.19-0.71-0.42-1.03-0.69c-0.32-0.28-0.6-0.6-0.83-0.96s-0.42-0.77-0.56-1.23
			s-0.21-0.95-0.21-1.49v-9.08H180.98z"/>
		<path class="st5" d="M203.31,345.77v1.32h-4.51v12.3h-1.45v-12.3h-4.5v-1.32H203.31z"/>
		<path class="st5" d="M210.89,352.65l3.94-6.88h1.67l-4.88,8.15v5.47h-1.45v-5.47l-4.87-8.15h1.67L210.89,352.65z"/>
	</g>
</g>
</svg>
